<svg width="18" height="17" viewBox="0 0 18 17" fill="none" xmlns="http://www.w3.org/2000/svg">
<path d="M12.4532 10.8333H11.6656L11.3864 10.5858C12.3635 9.54083 12.9517 8.18417 12.9517 6.70833C12.9517 3.4175 10.0505 0.75 6.47133 0.75C2.89218 0.75 -0.0090332 3.4175 -0.0090332 6.70833C-0.0090332 9.99917 2.89218 12.6667 6.47133 12.6667C8.07647 12.6667 9.55199 12.1258 10.6885 11.2275L10.9577 11.4842V12.2083L15.9426 16.7825L17.4281 15.4167L12.4532 10.8333ZM6.47133 10.8333C3.98885 10.8333 1.98492 8.99083 1.98492 6.70833C1.98492 4.42583 3.98885 2.58333 6.47133 2.58333C8.95381 2.58333 10.9577 4.42583 10.9577 6.70833C10.9577 8.99083 8.95381 10.8333 6.47133 10.8333Z" fill="white"/>
</svg>
