<svg
  width="19.166656"
  height="17.072266"
  viewBox="0 0 19.1667 17.0723"
  fill="none"
  xmlns="http://www.w3.org/2000/svg"
  xmlns:xlink="http://www.w3.org/1999/xlink"
>
	<desc>
			Created with Pixso.
	</desc>
	<defs />
	<path
    id="Vector"
    d="M18.29 6.27L14.12 6.27L10.3 0.37C10.14 0.12 9.86 0 9.58 0C9.3 0 9.02 0.12 8.86 0.38L5.04 6.27L0.87 6.27C0.39 6.27 0 6.68 0 7.17C0 7.25 0 7.33 0.03 7.42L2.24 15.75C2.44 16.51 3.11 17.07 3.92 17.07L15.24 17.07C16.04 17.07 16.71 16.51 16.92 15.75L19.14 7.42L19.16 7.17C19.16 6.68 18.77 6.27 18.29 6.27ZM9.58 2.5L12.02 6.27L7.14 6.27L9.58 2.5ZM15.24 15.27L3.92 15.28L2.01 8.07L17.16 8.07L15.24 15.27ZM9.58 9.87C8.62 9.87 7.84 10.68 7.84 11.67C7.84 12.66 8.62 13.47 9.58 13.47C10.54 13.47 11.32 12.66 11.32 11.67C11.32 10.68 10.54 9.87 9.58 9.87Z"
    fill="#FFFFFF"
    fill-opacity="1.000000"
    fill-rule="nonzero"
  />
</svg>
