<svg
  width="20.833313"
  height="16.666016"
  viewBox="0 0 20.8333 16.666"
  fill="none"
  xmlns="http://www.w3.org/2000/svg"
  xmlns:xlink="http://www.w3.org/1999/xlink"
>
	<desc>
			Created with Pixso.
	</desc>
	<defs />
	<path
    id="Vector"
    d="M13.54 12.5L17.7 12.5L17.7 14.58L13.54 14.58L13.54 12.5ZM13.54 4.16L20.83 4.16L20.83 6.25L13.54 6.25L13.54 4.16ZM13.54 8.33L19.79 8.33L19.79 10.41L13.54 10.41L13.54 8.33ZM1.04 14.58C1.04 15.72 1.97 16.66 3.12 16.66L9.37 16.66C10.52 16.66 11.45 15.72 11.45 14.58L11.45 4.16L1.04 4.16L1.04 14.58ZM3.12 6.25L9.37 6.25L9.37 14.58L3.12 14.58L3.12 6.25ZM8.33 0L4.16 0L3.12 1.04L0 1.04L0 3.12L12.5 3.12L12.5 1.04L9.37 1.04L8.33 0Z"
    fill="#BDBDBD"
    fill-opacity="1.000000"
    fill-rule="nonzero"
  />
</svg>
