<svg width="31.000000" height="28.000000" viewBox="0 0 31 28" fill="none" xmlns="http://www.w3.org/2000/svg" xmlns:xlink="http://www.w3.org/1999/xlink">
	<desc>
			Created with Pixso.
	</desc>
	<defs/>
	<path id="Vector" d="M29.44 10.29L22.6 10.29L16.34 0.61C16.07 0.2 15.61 0 15.15 0C14.7 0 14.24 0.2 13.97 0.63L7.71 10.29L0.87 10.29C0.08 10.29 -0.56 10.96 -0.56 11.77C-0.56 11.9 -0.55 12.03 -0.51 12.16L3.12 25.84C3.45 27.08 4.55 28 5.87 28L24.44 28C25.75 28 26.86 27.08 27.2 25.84L30.83 12.16L30.87 11.77C30.87 10.96 30.23 10.29 29.44 10.29ZM15.15 4.1L19.15 10.29L11.15 10.29L15.15 4.1ZM24.44 25.04L5.88 25.06L2.74 13.24L27.58 13.24L24.44 25.04ZM15.15 16.19C13.58 16.19 12.3 17.52 12.3 19.14C12.3 20.77 13.58 22.09 15.15 22.09C16.73 22.09 18.01 20.77 18.01 19.14C18.01 17.52 16.73 16.19 15.15 16.19Z" fill="#FFFFFF" fill-opacity="1.000000" fill-rule="nonzero"/>
</svg>


