<svg
  width="22.000000"
  height="18.000000"
  viewBox="0 0 22 18"
  fill="none"
  xmlns="http://www.w3.org/2000/svg"
  xmlns:xlink="http://www.w3.org/1999/xlink"
>
	<desc>
			Created with Pixso.
	</desc>
	<defs />
	<path
    id="Vector"
    d="M21 6L16.2 6L11.83 -0.57C11.63 -0.84 11.32 -0.99 11 -0.99C10.67 -0.99 10.36 -0.84 10.16 -0.56L5.79 6L1 6C0.44 6 0 6.44 0 7C0 7.08 0.01 7.17 0.04 7.26L2.58 16.53C2.81 17.37 3.58 18 4.5 18L17.5 18C18.41 18 19.18 17.37 19.42 16.53L21.97 7.26L22 7C22 6.44 21.55 6 21 6ZM11 1.79L13.8 6L8.19 6L11 1.79ZM17.5 16L4.51 16L2.31 8L19.7 8L17.5 16ZM11 10C9.89 10 9 10.9 9 12C9 13.09 9.89 14 11 14C12.1 14 13 13.09 13 12C13 10.9 12.1 10 11 10Z"
    fill="#828282"
    fill-opacity="1.000000"
    fill-rule="nonzero"
  />
</svg>
