<svg
  width="24.557251"
  height="21.875000"
  viewBox="0 0 24.5573 21.875"
  fill="none"
  xmlns="http://www.w3.org/2000/svg"
  xmlns:xlink="http://www.w3.org/1999/xlink"
>
	<desc>
			Created with Pixso.
	</desc>
	<defs />
	<path
    id="Vector"
    d="M23.44 8.04L18.09 8.04L13.2 0.48C12.99 0.16 12.63 0 12.27 0C11.92 0 11.56 0.16 11.35 0.49L6.46 8.04L1.11 8.04C0.5 8.04 0 8.56 0 9.19C0 9.3 0.01 9.4 0.04 9.5L2.87 20.19C3.13 21.16 3.99 21.87 5.02 21.87L19.53 21.87C20.56 21.87 21.42 21.16 21.68 20.19L24.52 9.5L24.55 9.19C24.55 8.56 24.05 8.04 23.44 8.04ZM12.27 3.2L15.4 8.04L9.15 8.04L12.27 3.2ZM19.53 19.57L5.03 19.58L2.57 10.34L21.99 10.34L19.53 19.57ZM12.27 12.65C11.05 12.65 10.04 13.69 10.04 14.95C10.04 16.22 11.05 17.26 12.27 17.26C13.5 17.26 14.51 16.22 14.51 14.95C14.51 13.69 13.5 12.65 12.27 12.65Z"
    fill="#D63626"
    fill-opacity="1.000000"
    fill-rule="nonzero"
  />
</svg>
