<svg
  width="22.000000"
  height="14.000000"
  viewBox="0 0 22 14"
  fill="none"
  xmlns="http://www.w3.org/2000/svg"
  xmlns:xlink="http://www.w3.org/1999/xlink"
>
	<desc>
			Created with Pixso.
	</desc>
	<defs />
	<path
    id="Vector"
    d="M15.5 8C14.3 8 12.42 8.33 11 9C9.57 8.33 7.69 8 6.5 8C4.33 8 0 9.08 0 11.25L0 14L22 14L22 11.25C22 9.08 17.66 8 15.5 8ZM11.5 12.5L1.5 12.5L1.5 11.25C1.5 10.71 4.06 9.5 6.5 9.5C8.93 9.5 11.5 10.71 11.5 11.25L11.5 12.5ZM20.5 12.5L13 12.5L13 11.25C13 10.78 12.8 10.39 12.48 10.02C13.36 9.73 14.43 9.5 15.5 9.5C17.93 9.5 20.5 10.71 20.5 11.25L20.5 12.5ZM6.5 7C8.42 7 10 5.42 10 3.5C10 1.57 8.42 0 6.5 0C4.57 0 3 1.57 3 3.5C3 5.42 4.57 7 6.5 7ZM6.5 1.5C7.6 1.5 8.5 2.4 8.5 3.5C8.5 4.59 7.6 5.5 6.5 5.5C5.39 5.5 4.5 4.59 4.5 3.5C4.5 2.4 5.39 1.5 6.5 1.5ZM15.5 7C17.42 7 19 5.42 19 3.5C19 1.57 17.42 0 15.5 0C13.57 0 12 1.57 12 3.5C12 5.42 13.57 7 15.5 7ZM15.5 1.5C16.6 1.5 17.5 2.4 17.5 3.5C17.5 4.59 16.6 5.5 15.5 5.5C14.39 5.5 13.5 4.59 13.5 3.5C13.5 2.4 14.39 1.5 15.5 1.5Z"
    fill="#828282"
    fill-opacity="1.000000"
    fill-rule="nonzero"
  />
</svg>
