<svg width="32" height="19" viewBox="0 0 32 19" fill="none" xmlns="http://www.w3.org/2000/svg">
<path d="M32 2.14357C30.8232 2.50581 29.5591 2.75056 28.2301 2.86119C29.6013 2.2912 30.6272 1.3941 31.1164 0.337289C29.828 0.868883 28.418 1.24307 26.9476 1.44358C25.9588 0.710161 24.6491 0.224042 23.2218 0.0606915C21.7945 -0.102659 20.3296 0.0658974 19.0543 0.540192C17.7791 1.01449 16.7649 1.76798 16.1693 2.6837C15.5737 3.59941 15.43 4.62611 15.7604 5.60439C13.1499 5.51333 10.5961 5.04199 8.26485 4.22095C5.93354 3.3999 3.87681 2.2475 2.22813 0.838544C1.66441 1.51406 1.34026 2.29728 1.34026 3.1314C1.33963 3.8823 1.60582 4.62169 2.11522 5.28399C2.62461 5.94628 3.36145 6.51099 4.26037 6.92801C3.21786 6.90497 2.19836 6.70929 1.28671 6.35725V6.41599C1.2866 7.46916 1.81102 8.48991 2.77098 9.30506C3.73094 10.1202 5.06731 10.6795 6.55333 10.8881C5.58624 11.0699 4.57231 11.0967 3.58813 10.9665C4.0074 11.8726 4.82409 12.6651 5.92389 13.2328C7.02368 13.8005 8.35151 14.1151 9.72148 14.1326C7.39587 15.4008 4.52376 16.0887 1.56716 16.0857C1.04343 16.0858 0.520146 16.0646 0 16.0221C3.00111 17.3625 6.49462 18.0739 10.0625 18.0712C22.1404 18.0712 28.7431 11.1221 28.7431 5.0953C28.7431 4.8995 28.736 4.70174 28.7233 4.50593C30.0076 3.86074 31.1162 3.06178 31.9972 2.14651L32 2.14357Z" fill="#FB9300"/>
</svg>
