<svg width="62" height="12" viewBox="0 0 62 12" fill="none" xmlns="http://www.w3.org/2000/svg">
<path d="M4.5 0.511719L6.02963 3.11968L9 3.75843L6.975 6.00899L7.28115 9.01172L4.5 7.79468L1.71885 9.01172L2.025 6.00899L0 3.75843L2.97037 3.11968L4.5 0.511719Z" fill="#FFCB45"/>
<path d="M16.5 0.511719L18.0296 3.11968L21 3.75843L18.975 6.00899L19.2812 9.01172L16.5 7.79468L13.7188 9.01172L14.025 6.00899L12 3.75843L14.9704 3.11968L16.5 0.511719Z" fill="#FFCB45"/>
<path d="M28.5 0.511719L30.0296 3.11968L33 3.75843L30.975 6.00899L31.2812 9.01172L28.5 7.79468L25.7188 9.01172L26.025 6.00899L24 3.75843L26.9704 3.11968L28.5 0.511719Z" fill="#FFCB45"/>
<path d="M40.5 0.511719L42.0296 3.11968L45 3.75843L42.975 6.00899L43.2812 9.01172L40.5 7.79468L37.7188 9.01172L38.025 6.00899L36 3.75843L38.9704 3.11968L40.5 0.511719Z" fill="#FFCB45"/>
<path d="M52.5 0.511719L54.0296 3.11968L57 3.75843L54.975 6.00899L55.2812 9.01172L52.5 7.79468L49.7188 9.01172L50.025 6.00899L48 3.75843L50.9704 3.11968L52.5 0.511719Z" fill="#F2F2F2"/>
<path d="M49.7188 9.01172L52.5 7.79468V0.511719L50.9704 3.11968L48 3.75843L50.025 6.00899L49.7188 9.01172Z" fill="#FFCB45"/>
</svg>
